<svg id="a76bd170-243a-4181-b0b3-b17f447f8a0c" data-name="Layer 1" xmlns="http://www.w3.org/2000/svg" viewBox="0 0 652.88 113"><path d="M40,31.37H30v63.8H17.58V31.37h-10V20.17H40Z" fill="#393939"/><path d="M66.48,20.17c5.3,0,8.5,3.2,8.5,8.5v17a6.85,6.85,0,0,1-4.5,6.9c2.8,1.7,4.8,5.4,4.8,11.7v30.9h-13V63.57c0-2.6-.7-4.3-4-4.3h-1.9v35.9H42.78v-75ZM56.38,31v15.6H59c2.8,0,3.9-1.2,3.9-4.3v-7.4c0-3.1-1.5-3.9-4-3.9Z" fill="#393939"/><path d="M79.78,36.57c0-10.8,7.4-17,17.6-17,10.9,0,17.5,7.1,17.5,17.6v41c0,11.6-7.4,17.6-17.7,17.6-10.6,0-17.4-6.7-17.4-17.6Zm21.8-1.4a4.08,4.08,0,0,0-4.2-4.4,4,4,0,0,0-4.2,4.4v44.1a4,4,0,0,0,4.2,4.2,4,4,0,0,0,4.2-4.2Z" fill="#393939"/><path d="M150.63,37.25c.68-3.23-.85-5.18-3.3-5.69-2.25-.47-4.64.66-5.31,3.89L133.1,78.13a3.85,3.85,0,0,0,3,4.62l.4.08a3.93,3.93,0,0,0,4.71-3l3.13-15,12,2.52L153,83.81c-1.9,9.11-9.17,13.11-16.9,11.49l-4.51-.94C121.37,92.23,118.5,84.48,120.48,75l9-43.17c2-9.39,9.47-13.55,19.85-11.38,11.06,2.31,14.66,9.5,12.93,17.82l-2.11,10.09L148.81,46Z" fill="#393939"/><path d="M189.48,20.17l10.1,75h-14l-1.5-10.6h-9.3l-1.4,10.6h-12.5l9.8-75Zm-7.1,51.9-3.1-22.4-2.9,22.4Z" fill="#393939"/><path d="M220.78,95.17h-18.9v-75h18.3c6.3,0,12.7,3.6,12.7,13.6v46.6C232.88,89.37,230.08,95.17,220.78,95.17Zm-6.5-62.9v52.2h2.1c2.6,0,4.3-1.2,4.3-5.4V37.67c0-4.2-1.1-5.4-4.3-5.4Z" fill="#393939"/><path d="M262.88,95.17h-24.6v-75h25v11h-11.1v14.2h9.2V58h-9.2v25.4h10.7Z" fill="#393939"/><path d="M292,20.17c5.3,0,8.5,3.2,8.5,8.5v17a6.85,6.85,0,0,1-4.5,6.9c2.8,1.7,4.8,5.4,4.8,11.7v30.9h-13V63.57c0-2.6-.7-4.3-4-4.3h-1.9v35.9h-13.6v-75ZM281.88,31v15.6h2.6c2.8,0,3.9-1.2,3.9-4.3v-7.4c0-3.1-1.5-3.9-4-3.9Z" fill="#393939"/><path d="M305.28,36.57c0-10.8,7.4-17,17.6-17,10.9,0,17.5,7.1,17.5,17.6v41c0,11.6-7.4,17.6-17.7,17.6-10.6,0-17.4-6.7-17.4-17.6Zm21.8-1.4a4.08,4.08,0,0,0-4.2-4.4,4,4,0,0,0-4.2,4.4v44.1a4,4,0,0,0,4.2,4.2,4,4,0,0,0,4.2-4.2Z" fill="#393939"/><path d="M380.48,20.17c4.8,0,7.6,2.9,7.6,8.6v23.7c0,5.1-2.8,7.4-7.8,7.4h-10.4v35.3h-13.1v-75Zm-10.6,11.6v16.5h2.8c2.6,0,3.2-2.3,3.2-4.8v-8.4a3.18,3.18,0,0,0-3.4-3.3Z" fill="#393939"/><path d="M415.58,20.17c5.3,0,8.5,3.2,8.5,8.5v17a6.85,6.85,0,0,1-4.5,6.9c2.8,1.7,4.8,5.4,4.8,11.7v30.9h-13V63.57c0-2.6-.7-4.3-4-4.3h-1.9v35.9h-13.6v-75ZM405.48,31v15.6h2.6c2.8,0,3.9-1.2,3.9-4.3v-7.4c0-3.1-1.5-3.9-4-3.9Z" fill="#393939"/><path d="M428.88,36.57c0-10.8,7.4-17,17.6-17,10.9,0,17.5,7.1,17.5,17.6v41c0,11.6-7.4,17.6-17.7,17.6-10.6,0-17.4-6.7-17.4-17.6Zm21.8-1.4a4.08,4.08,0,0,0-4.2-4.4,4,4,0,0,0-4.2,4.4v44.1a4,4,0,0,0,4.2,4.2,4,4,0,0,0,4.2-4.2Z" fill="#393939"/><path d="M500.78,20.17v65c0,6.6-3.9,10.2-8.7,10.2h-14.9c-4.7,0-9.1-2.9-9.1-8.9V59.17h12.7v22.5a3,3,0,0,0,3.1,3.3h1.2c1.9,0,2.8-1.5,2.8-3.4V20.17Z" fill="#393939"/><path d="M530.78,95.17H506.17v-75h25v11h-11.1v14.2h9.2V58h-9.2v25.4h10.7Z" fill="#393939"/><path d="M556.78,35.77c0-3.3-1.9-4.9-4.4-4.9-2.3,0-4.4,1.6-4.4,4.9v43.6a3.84,3.84,0,0,0,3.9,3.9h.39a3.93,3.93,0,0,0,4-3.9V64.07h12.3v16.8c0,9.3-6.3,14.7-14.2,14.7h-4.61c-10.39,0-14.8-7-14.8-16.7V34.77c0-9.6,6.51-15.2,17.11-15.2,11.3,0,16.3,6.3,16.3,14.8v10.3h-11.6Z" fill="#393939"/><path d="M602.77,31.37h-10v63.8h-12.4V31.37h-10V20.17h32.4Z" fill="#393939"/><path d="M605.17,28.47c0-4.7,3.7-8.9,9.6-8.9H627c4.9,0,8.7,3.3,8.7,9.6v13.2h-12v-9.5c0-1.8-.8-3.1-3-3.1s-2.9,1.3-2.9,3.1v5.3c0,4.2.8,6.4,4.1,9.2l4.4,3.7c8.4,7,10.1,11.1,10.1,18.8v16.4c0,6-3.7,9.5-8.3,9.5h-14.7c-5.9,0-8.7-4.3-8.7-8.1v-20h12v14.5c0,2.2.6,3.5,3.4,3.5s3.4-1.3,3.4-3.5V73c0-5-.7-7.3-4-10l-4.2-3.5c-8.6-7.1-10.1-12.8-10.1-19.6Z" fill="#393939"/></svg>